HIERARCHY
ROOT Hips
{
	OFFSET -8.322684 108.804031 0.588293
	CHANNELS 6 Xposition Yposition Zposition Xrotation Yrotation Zrotation
	JOINT Chest
	{
		OFFSET 0.856414 13.485519 1.887177
		CHANNELS 3 Xrotation Yrotation Zrotation
		JOINT Chest2
		{
			OFFSET 0.172147 21.194016 3.138530
			CHANNELS 3 Xrotation Yrotation Zrotation
			JOINT Chest3
			{
				OFFSET 0.278923 14.923111 0.206741
				CHANNELS 3 Xrotation Yrotation Zrotation
				JOINT Neck
				{
					OFFSET -0.111547 17.197418 1.688872
					CHANNELS 3 Xrotation Yrotation Zrotation
					JOINT Head
					{
						OFFSET 0.179500 10.242981 2.208339
						CHANNELS 3 Xrotation Yrotation Zrotation
						End Site
						{
							OFFSET 0.184865 10.258011 2.137005
						}
					}
				}
				JOINT LeftCollar
				{
					OFFSET 4.165298 12.946075 4.105353
					CHANNELS 3 Xrotation Yrotation Zrotation
					JOINT LeftUpArm
					{
						OFFSET 15.437442 3.896606 -7.416280
						CHANNELS 3 Xrotation Yrotation Zrotation
						JOINT LeftLowArm
						{
							OFFSET 26.237427 13.915146 16.052824
							CHANNELS 3 Xrotation Yrotation Zrotation
							JOINT LeftHand
							{
								OFFSET -22.206827 -13.428360 15.082561
								CHANNELS 3 Xrotation Yrotation Zrotation
								End Site
								{
									OFFSET -4.853442 -2.934830 3.296383
								}
							}
						}
					}
				}
				JOINT RightCollar
				{
					OFFSET -4.250180 12.879852 4.225430
					CHANNELS 3 Xrotation Yrotation Zrotation
					JOINT RightUpArm
					{
						OFFSET -14.771714 -5.485321 -7.759124
						CHANNELS 3 Xrotation Yrotation Zrotation
						JOINT RightLowArm
						{
							OFFSET -9.527721 -31.455444 -7.714469
							CHANNELS 3 Xrotation Yrotation Zrotation
							JOINT RightHand
							{
								OFFSET -13.107639 -26.779503 3.464614
								CHANNELS 3 Xrotation Yrotation Zrotation
								End Site
								{
									OFFSET -2.864822 -5.852913 0.757227
								}
							}
						}
					}
				}
			}
		}
	}
	JOINT LeftUpLeg
	{
		OFFSET 9.869443 -0.839592 1.519310
		CHANNELS 3 Xrotation Yrotation Zrotation
		JOINT LeftLowLeg
		{
			OFFSET -2.693924 -46.114426 10.497226
			CHANNELS 3 Xrotation Yrotation Zrotation
			JOINT LeftFoot
			{
				OFFSET -5.087490 -42.958969 -11.367169
				CHANNELS 3 Xrotation Yrotation Zrotation
				JOINT LeftToe
				{
					OFFSET -6.481936 -20.845690 9.110501
					CHANNELS 3 Xrotation Yrotation Zrotation
					End Site
					{
						OFFSET -2.926126 -10.704678 20.890347
					}
				}
			}
		}
	}
	JOINT RightUpLeg
	{
		OFFSET -9.869460 0.839401 -1.519338
		CHANNELS 3 Xrotation Yrotation Zrotation
		JOINT RightLowLeg
		{
			OFFSET -0.679693 -46.062435 -11.036383
			CHANNELS 3 Xrotation Yrotation Zrotation
			JOINT RightFoot
			{
				OFFSET 6.829623 -37.442055 -23.495285
				CHANNELS 3 Xrotation Yrotation Zrotation
				JOINT RightToe
				{
					OFFSET 0.395739 -23.155361 4.819675
					CHANNELS 3 Xrotation Yrotation Zrotation
					End Site
					{
						OFFSET -4.495439 -15.074952 17.666151
					}
				}
			}
		}
	}
}
MOTION
Frames: 13
Frame Time: 0.033333
-14.162221 97.002426 6.740046 -4.310775 0.992774 17.300473 12.930407 -1.187463 5.489268 -4.915277 9.881061 -13.005456 1.124377 6.203632 3.122933 5.684603 3.379427 -2.679655 0.000000 0.000000 -0.000001 -1.513776 0.092124 -4.184985 -2.583375 0.268695 7.230723 -50.866567 -25.496917 -11.893902 0.000004 -0.000005 -0.000004 7.082278 26.559604 -17.749565 -62.526735 34.787526 24.672018 -2.689785 -1.048266 9.893172 0.000004 -0.000002 0.000000 -3.566235 -0.481328 -15.202580 16.014109 -3.464393 -8.698078 -6.371094 25.116098 3.757818 0.000002 -0.000001 0.000002 -23.609106 17.818041 -37.097141 42.330968 9.560147 53.999609 2.368608 -15.562977 -14.507692 0.000006 0.000003 -0.000003 
-14.149532 96.906891 6.788488 -4.141029 1.150370 17.331545 12.835779 -1.196489 5.625883 -4.996874 9.885521 -13.001570 1.229431 6.314898 3.088703 5.691984 3.323346 -2.551499 -0.000001 0.000002 0.000000 -1.352086 -0.363323 -4.158560 -2.792599 0.529381 6.857385 -49.712043 -24.559969 -11.313445 -0.000002 0.000001 -0.000003 7.095691 26.724621 -17.731967 -62.396865 34.880250 24.295560 -2.739918 -1.280325 9.538830 0.000002 -0.000002 -0.000001 -4.306153 -0.402433 -15.260092 16.645793 -3.784852 -8.730160 -6.386831 25.412950 3.758754 0.000002 -0.000002 0.000001 -23.688414 17.981228 -37.295234 41.946661 9.417108 54.668766 1.901415 -15.925578 -14.871053 0.000007 0.000002 -0.000000 
-14.129074 96.821281 6.839021 -4.425741 0.886968 17.463038 13.108934 -1.195404 5.619670 -4.773283 9.899327 -13.117552 1.142022 6.098713 3.195631 5.678583 3.627785 -2.825670 -0.000001 0.000003 0.000001 -1.718022 0.220420 -4.437412 -3.037101 0.667299 6.569605 -49.126703 -24.809339 -11.367480 0.000001 -0.000006 -0.000001 6.960625 26.758494 -17.582106 -61.782824 34.253064 24.081258 -4.154037 -1.047973 9.806555 -0.000001 -0.000001 -0.000003 -4.093685 -0.417236 -15.344706 16.467600 -3.900503 -9.002124 -6.058742 25.752371 3.696483 -0.000000 -0.000002 -0.000002 -23.659900 18.031655 -37.439340 42.199972 9.782970 54.595724 2.041521 -16.039425 -14.817696 0.000002 0.000004 -0.000003 
-14.106510 96.733536 6.885902 -4.106308 0.737448 17.478119 12.748961 -1.214760 5.738554 -4.439821 9.908861 -13.172343 0.849494 6.149965 3.096688 5.656294 3.783874 -2.898960 -0.000001 -0.000001 -0.000001 -1.520730 0.137765 -4.421135 -3.029666 1.422715 6.586813 -49.273787 -24.662918 -11.166697 0.000003 -0.000003 -0.000000 7.110252 26.557002 -17.856061 -62.223549 34.827015 24.263152 -4.326665 -0.710590 9.949066 0.000002 -0.000004 -0.000001 -4.436044 -0.348196 -15.308428 16.512052 -3.905063 -9.095068 -6.265768 25.570792 3.707167 -0.000002 -0.000003 0.000000 -23.957022 18.208081 -37.476548 42.551993 10.020493 54.463799 1.885763 -15.439294 -14.306390 0.000003 0.000002 -0.000002 
-14.082170 96.660751 6.931359 -5.000382 0.820190 17.561169 13.373322 -1.230308 5.930193 -4.641617 9.912282 -13.131148 0.968989 6.203583 2.957678 6.005022 3.761291 -2.943840 -0.000000 0.000002 0.000000 -1.459554 -0.178418 -4.786285 -2.934810 0.806495 6.647049 -49.669163 -24.989774 -11.487071 -0.000002 -0.000003 -0.000003 6.813839 26.203812 -17.427556 -62.049871 34.674579 24.089782 -4.026744 -0.978340 10.408088 0.000001 -0.000000 0.000000 -4.010979 -0.413558 -15.415302 16.959850 -3.993583 -9.030046 -6.727839 25.228574 3.779795 0.000003 -0.000002 0.000001 -23.042789 17.885255 -37.797352 42.484125 9.941880 54.667598 1.772404 -15.484794 -14.390046 0.000001 0.000005 -0.000002 
-14.056221 96.581177 6.972765 -5.341253 0.769332 17.640818 13.492764 -1.245227 5.947577 -5.333937 10.019878 -13.115503 1.548153 6.168680 3.009375 6.498613 3.565824 -2.816005 -0.000000 0.000003 0.000000 -1.142919 -0.717284 -4.774560 -2.853864 0.875158 6.556378 -50.256375 -24.956944 -11.609837 -0.000003 -0.000003 -0.000004 6.913969 26.201186 -17.560022 -61.960689 34.562110 24.238646 -4.413039 -0.837432 10.449928 -0.000000 -0.000002 0.000002 -4.030762 -0.424375 -15.424090 17.218852 -4.090025 -9.178826 -6.591545 24.744826 3.701857 0.000000 -0.000005 0.000001 -22.962410 17.874100 -37.888924 42.723130 10.076393 54.636575 1.800499 -15.719907 -14.623210 0.000005 -0.000001 0.000003 
-14.037432 96.513153 7.009720 -5.032661 0.659193 17.731069 13.384415 -1.239236 5.879729 -5.459441 10.120729 -13.170609 1.635107 6.283498 3.064113 6.350674 3.730900 -2.929545 0.000001 0.000000 0.000001 -1.134675 -0.431740 -4.887326 -2.543937 0.480505 6.629313 -49.374099 -24.436832 -11.060327 -0.000003 -0.000002 0.000003 7.236328 26.620657 -17.778854 -61.651931 34.913847 23.840434 -5.054430 -0.433292 10.209061 -0.000001 -0.000002 0.000000 -4.546017 -0.357867 -15.350838 17.222681 -4.210807 -9.526764 -5.861866 24.787617 3.502145 0.000002 -0.000003 -0.000000 -23.284438 18.054389 -37.895324 42.661857 10.053353 54.723978 1.834776 -15.865978 -14.791808 0.000006 0.000001 -0.000001 
-14.018778 96.447906 7.047524 -4.684910 0.849852 17.727493 13.291632 -1.277940 6.069047 -5.440371 10.189564 -13.245946 1.671156 6.169932 3.025390 6.184257 3.836873 -2.960082 -0.000001 -0.000002 0.000000 -0.989123 -0.565067 -4.695460 -2.476138 0.954702 6.326954 -50.281783 -24.474513 -11.196566 -0.000001 -0.000002 -0.000002 7.345610 26.483708 -18.122729 -62.538346 35.636017 24.074817 -4.529297 -0.398139 9.932225 -0.000000 -0.000001 -0.000001 -4.423408 -0.397011 -15.452292 17.127720 -4.062040 -9.273634 -6.415013 24.139613 3.633375 -0.000000 -0.000001 0.000001 -23.205899 18.058800 -37.996373 42.395141 9.731017 54.829630 2.129856 -16.158768 -15.037239 0.000002 0.000003 -0.000001 
-14.003477 96.388702 7.085306 -4.795658 0.790582 17.736169 13.488896 -1.266622 6.005995 -5.932041 10.168680 -13.183479 1.923610 5.974937 3.122816 6.472026 3.913648 -3.037300 0.000000 0.000001 0.000000 -1.073144 -0.516665 -4.665447 -2.617201 1.126538 6.019890 -50.258270 -24.832054 -11.396384 0.000003 -0.000004 -0.000003 7.380941 26.939593 -18.009049 -61.964596 35.178264 23.836039 -5.266483 -0.232279 10.067226 0.000002 -0.000002 -0.000001 -3.674341 -0.506647 -15.555109 16.637943 -3.989405 -9.210184 -6.382608 24.671500 3.747335 0.000000 -0.000005 0.000001 -23.073943 17.982066 -37.979875 42.427643 9.812519 54.645608 2.164965 -15.910193 -14.792293 0.000003 0.000003 -0.000000 
-13.987614 96.339615 7.124824 -4.509946 1.157949 17.720139 12.939458 -1.266645 6.163307 -4.836484 9.918197 -13.107136 1.187263 5.967863 2.831787 6.300420 3.779755 -2.935152 -0.000002 0.000000 0.000000 -1.028518 -0.566132 -4.877968 -2.670944 1.040204 6.222532 -50.820104 -24.844945 -11.552742 -0.000000 -0.000002 -0.000002 7.183905 26.498139 -17.909463 -61.904409 34.939529 23.986537 -5.568763 -0.113564 9.889800 0.000000 -0.000000 -0.000001 -3.726015 -0.462147 -15.621245 16.761648 -4.055715 -8.939963 -6.901326 24.426379 3.821745 0.000003 -0.000002 0.000003 -22.976736 17.976370 -38.148338 42.038049 9.544006 55.003681 2.217205 -15.972498 -14.851126 0.000000 0.000006 -0.000004 
-13.974590 96.290176 7.165195 -3.775180 1.081666 17.670818 12.367267 -1.253674 6.069827 -4.907768 9.934485 -13.116249 1.433867 6.220874 2.986732 5.911704 3.796275 -2.949574 0.000000 0.000001 -0.000000 -0.992838 -0.593137 -4.797510 -2.633213 0.958721 6.176219 -49.968018 -23.679233 -10.833429 0.000002 -0.000003 -0.000003 7.228649 26.451704 -18.263975 -62.039885 34.784651 24.255989 -6.115404 -0.041615 9.639034 0.000005 0.000001 0.000000 -4.211008 -0.376994 -15.569695 16.558530 -3.872675 -8.938926 -7.011503 24.078268 3.806701 0.000003 -0.000002 0.000000 -23.716577 18.273620 -38.056141 42.132999 9.492117 55.070384 2.352111 -15.989901 -14.873104 0.000005 0.000002 -0.000000 
-13.960909 96.243324 7.206422 -4.080016 1.132058 17.671916 12.781405 -1.262915 6.098003 -4.791901 9.782356 -12.913781 1.073119 6.104655 2.774916 6.202943 3.669693 -2.831019 -0.000001 0.000003 0.000001 -1.100811 -0.228240 -4.841131 -2.636900 1.240193 6.213494 -51.166269 -23.947369 -11.199395 0.000003 -0.000002 -0.000000 7.200982 26.276093 -18.101033 -61.875271 34.728623 24.278855 -6.589728 0.171109 9.798962 -0.000004 -0.000003 0.000002 -3.844179 -0.461026 -15.589980 16.599868 -3.858852 -8.882675 -7.081515 24.171845 3.847867 -0.000000 -0.000001 -0.000001 -23.541017 18.191399 -38.043495 42.348334 9.638605 54.941325 2.367843 -15.854626 -14.738841 0.000003 0.000005 -0.000003 
-13.945669 96.204201 7.251565 -4.617254 1.150189 17.695791 13.407987 -1.271330 6.180505 -5.572098 9.917660 -12.961793 1.760418 5.869653 2.891297 6.142020 3.768584 -2.899074 -0.000001 0.000001 0.000000 -1.247043 -0.182408 -4.704023 -2.649996 1.069243 6.095090 -50.110205 -23.458645 -10.753429 -0.000004 -0.000005 -0.000002 7.094788 26.308876 -18.049424 -61.818362 34.508861 24.285777 -6.548128 0.045595 9.672227 0.000003 0.000000 0.000002 -4.021523 -0.443778 -15.540948 17.069862 -4.059073 -8.998311 -6.832081 24.230199 3.766384 -0.000000 -0.000004 -0.000000 -23.249320 18.069078 -38.072513 42.478272 9.803483 55.009466 2.095876 -15.903633 -14.791910 0.000001 0.000003 -0.000005 
